<svg width="30" height="30" viewBox="0 0 30 30" fill="none" xmlns="http://www.w3.org/2000/svg">
<g clip-path="url(#clip0_243_81)">
<path fill-rule="evenodd" clip-rule="evenodd" d="M8.80448 0.184094C6.36266 0.294269 4.24622 0.891264 2.53724 2.59303C0.822292 4.30373 0.232712 6.42856 0.122263 8.84498C0.0536046 10.3532 -0.347871 21.7475 0.816324 24.7356C1.60141 26.7515 3.14766 28.3015 5.18202 29.0891C6.13128 29.4584 7.21491 29.7083 8.80448 29.7813C22.0957 30.3828 27.0226 30.0553 29.1003 24.7356C29.4689 23.7887 29.7227 22.706 29.7928 21.1204C30.4003 7.79506 29.6943 4.90672 27.3779 2.59303C25.5405 0.760239 23.3793 -0.487381 8.80448 0.184094ZM8.92684 27.1013C7.4716 27.0358 6.68205 26.7933 6.15518 26.5894C4.82978 26.0742 3.83425 25.0828 3.32231 23.7651C2.43573 21.4946 2.72977 10.7108 2.80888 8.96583C2.88649 7.25661 3.23276 5.69451 4.43875 4.48854C5.9313 2.99967 7.85967 2.26999 20.9897 2.86256C22.7031 2.93998 24.2689 3.28554 25.4778 4.48854C26.9704 5.97739 27.7107 7.9206 27.1077 21.0003C27.042 22.4519 26.7988 23.2396 26.5943 23.7651C25.2435 27.2267 22.136 27.7073 8.92684 27.1013ZM21.1345 7.03444C21.1345 8.02007 21.936 8.82154 22.9256 8.82154C23.9151 8.82154 24.7181 8.02007 24.7181 7.03444C24.7181 6.04882 23.9151 5.24806 22.9256 5.24806C21.936 5.24806 21.1345 6.04882 21.1345 7.03444ZM7.294 14.9819C7.294 19.2044 10.7254 22.6277 14.9583 22.6277C19.1912 22.6277 22.6226 19.2044 22.6226 14.9819C22.6226 10.7595 19.1912 7.33839 14.9583 7.33839C10.7254 7.33839 7.294 10.7595 7.294 14.9819ZM9.98359 14.9819C9.98359 12.2425 12.2105 10.0198 14.9583 10.0198C17.7061 10.0198 19.933 12.2425 19.933 14.9819C19.933 17.7229 17.7061 19.9463 14.9583 19.9463C12.2105 19.9463 9.98359 17.7229 9.98359 14.9819Z" fill="#c0272d"/>
</g>
<defs>
<clipPath id="clip0_243_81">
<rect width="30" height="30" fill="#c0272d"/>
</clipPath>
</defs>
</svg>
