<svg width="142" height="56" viewBox="0 0 142 56" fill="none" xmlns="http://www.w3.org/2000/svg">
<g clip-path="url(#clip0_50_1728)">
<path d="M37.4375 42.1696L19.3297 0.404986C19.173 0.136642 18.978 0 18.7446 0C18.4712 0 18.2762 0.134995 18.1595 0.404986L0.0534158 42.1696C-0.128279 42.5894 0.183436 43.0569 0.645173 43.0569H0.64684C0.905213 43.0569 1.13858 42.9055 1.2386 42.67L7.62957 27.8963C7.73126 27.6625 7.96462 27.5094 8.22133 27.5094H29.3579C29.6179 27.5094 29.8513 27.6625 29.9513 27.8979L36.2489 42.6651C36.349 42.9005 36.584 43.0536 36.8424 43.0536C37.3041 43.0536 37.6158 42.5861 37.4341 42.1663L37.4375 42.1696ZM28.3277 26.3438H9.3215C8.85976 26.3438 8.54805 25.8779 8.72807 25.4581L18.1578 3.61524C18.3795 3.1016 19.1163 3.09995 19.3414 3.61195L28.9195 25.4532C29.1029 25.873 28.7911 26.3422 28.3277 26.3422V26.3438ZM81.9493 16.5567C79.2572 13.8798 75.4733 12.5397 70.5975 12.5397C65.7218 12.5397 61.9962 13.8782 59.3041 16.5567C56.6121 19.2352 55.2668 22.9624 55.2668 27.7399C55.2668 32.5174 56.6121 36.2347 59.3041 38.8935C61.9962 41.5522 65.7601 42.8808 70.5975 42.8808C74.1081 42.8808 77.0535 42.1778 79.4339 40.7719C81.1008 39.7874 82.461 38.5049 83.5145 36.9245C83.8679 36.3944 84.6997 36.6315 84.6997 37.2669V55.3645C84.6997 55.7152 84.9881 56 85.3431 56C85.6982 56 85.9865 55.7152 85.9865 55.3645V27.7399C85.9865 22.9624 84.6397 19.2352 81.9493 16.5567ZM81.0125 37.9979C78.5554 40.4064 75.0815 41.6098 70.5959 41.6098C66.1102 41.6098 62.6463 40.4064 60.2093 37.9979C57.7706 35.591 56.552 32.17 56.552 27.7399C56.552 23.3097 57.7706 19.8805 60.2093 17.4523C62.6463 15.0256 66.1102 13.8107 70.5959 13.8107C75.0815 13.8107 78.5537 15.024 81.0125 17.4523C83.4695 19.8789 84.6997 23.3097 84.6997 27.7399C84.6997 32.17 83.4712 35.591 81.0125 37.9979ZM98.1217 16.5567C100.634 14.0757 104.969 12.6435 110.439 12.5447C110.772 12.5381 111.044 12.8081 111.044 13.1373C111.044 13.4617 110.78 13.7201 110.452 13.7284C105.728 13.8321 101.367 15.1722 99.0285 17.4819C96.7765 19.706 95.9564 23.3097 95.9564 27.7399V42.349C95.9564 42.675 95.688 42.94 95.358 42.94H95.268C94.9379 42.94 94.6695 42.675 94.6695 42.349V27.7399C94.6695 22.9624 95.6063 19.0409 98.1217 16.5567ZM137.961 16.527C135.269 13.8683 131.485 12.5397 126.609 12.5397H118.026C117.686 12.5397 117.411 12.813 117.413 13.1472C117.413 13.4781 117.683 13.7481 118.02 13.7514C119.53 13.7679 123.562 13.8107 126.609 13.8107C130.743 13.8107 134.021 14.8413 136.441 16.9024C138.711 18.8384 140.071 21.5466 140.52 25.0268C140.567 25.3906 140.281 25.7166 139.91 25.7166H126.024C123.761 25.7166 121.704 25.794 119.85 25.9471C117.996 26.1018 116.416 26.4673 115.109 27.0452C113.802 27.623 112.797 28.5005 112.096 29.6743C111.394 30.8497 111.042 32.4581 111.042 34.4995C111.042 35.9252 111.324 37.1204 111.89 38.0835C112.456 39.0466 113.187 39.8368 114.084 40.4525C114.981 41.0698 116.006 41.5506 117.156 41.8979C118.306 42.2453 119.448 42.4955 120.58 42.6486C121.71 42.8017 122.804 42.889 123.857 42.9087C124.911 42.9269 125.788 42.9367 126.491 42.9367C132.694 42.9367 136.966 41.781 139.306 39.4697C140.008 38.7766 140.545 38.0242 140.915 37.2159C141.285 36.4059 141.548 35.5499 141.705 34.6444C141.86 33.7389 141.948 32.8055 141.968 31.8408C141.987 30.8777 141.997 29.9146 141.997 28.9516V27.7382C141.997 22.9229 140.652 19.1841 137.959 16.527H137.961ZM140.712 28.9532C140.712 29.8784 140.702 30.7937 140.683 31.6976C140.663 32.603 140.585 33.4706 140.45 34.2987C140.313 35.1284 140.088 35.8972 139.776 36.6101C139.463 37.3229 139.016 37.9682 138.431 38.5461C136.324 40.627 132.345 41.6674 126.494 41.6674C124.856 41.6674 123.189 41.5901 121.492 41.437C119.795 41.2839 118.273 40.9563 116.928 40.4541C115.583 39.9537 114.479 39.2309 113.622 38.2876C112.764 37.3443 112.336 36.0833 112.336 34.5028C112.336 32.9224 112.569 31.6416 113.037 30.6604C113.506 29.6776 114.286 28.917 115.378 28.377C116.47 27.837 117.883 27.4715 119.62 27.2789C121.355 27.0863 123.491 26.9892 126.028 26.9892H140.101C140.44 26.9892 140.715 27.2608 140.715 27.595V28.9532H140.712ZM45.7454 36.7368V42.4198C45.7454 42.7705 45.457 43.0553 45.102 43.0553C44.7469 43.0553 44.4585 42.7705 44.4585 42.4198V36.7368C44.4585 32.3067 43.435 28.8873 41.3864 26.4788C40.4579 25.3857 39.3477 24.5444 38.0609 23.9485C37.8309 23.8415 37.6792 23.6192 37.6792 23.369V23.318C37.6792 22.8471 38.1776 22.5459 38.6093 22.7467C40.0245 23.4085 41.253 24.3436 42.2932 25.5553C44.5952 28.2338 45.7454 31.961 45.7454 36.7385V36.7368ZM39.7028 14.9055C38.946 14.3589 37.8225 14.4461 37.2274 14.9137C37.1307 14.9894 37.0441 15.0783 36.9691 15.1787C36.4306 15.9047 36.7073 17.0094 37.5858 17.6449C38.3743 18.2145 39.3828 18.2128 39.9695 17.6811C40.0362 17.6202 40.0979 17.5527 40.1529 17.4802C40.6913 16.7542 40.5829 15.5426 39.7045 14.9071L39.7028 14.9055ZM50.0227 16.8053C49.681 15.9426 48.6108 15.4191 48.5558 14.4231C48.4803 13.8897 48.4425 13.623 48.4425 13.623C49.4476 10.8325 48.9542 8.68415 45.8271 6.54892C43.0433 4.64911 37.7025 6.21966 37.3791 6.31844C37.3674 6.32173 37.3591 6.32502 37.3491 6.32832C33.4752 7.83796 32.555 12.0623 33.7652 15.4932C33.7769 15.5278 33.3702 15.6907 33.3385 16.178C33.3035 16.7427 33.4035 17.6268 33.8602 18.0729C34.0669 18.2754 34.3487 18.3873 34.722 18.3396C35.1221 18.2869 35.4038 17.9643 35.2588 17.5922C35.0788 17.1296 34.9921 16.6225 35.0204 16.0957C35.2138 11.4186 42.6366 11.687 42.3365 16.3427C42.3365 16.3591 42.3215 16.5172 42.3215 16.5172C41.5514 19.0212 43.1533 20.7349 45.1253 21.3622C45.127 21.3622 47.304 22.024 47.5957 21.8528C48.0207 21.6025 48.0824 21.0889 48.0224 20.6065C47.9874 20.3316 48.1191 20.0715 48.3525 19.9184C48.4958 19.8246 48.5892 19.6682 48.5942 19.4871C48.5975 19.3636 48.6592 19.2533 48.7559 19.1759C49.1126 18.8895 48.6758 18.2984 48.7992 17.9033C49.0392 17.3584 50.1494 17.5955 50.0194 16.802L50.0227 16.8053ZM38.856 7.42474C38.1276 8.46355 37.8842 9.68509 38.0375 11.4779C38.0526 11.6442 37.9359 11.8006 37.7692 11.822C36.5006 11.9899 35.4388 12.7225 35.0138 13.5242C34.9604 13.623 34.8671 13.6938 34.7554 13.7053C34.6954 13.7119 34.637 13.7168 34.5754 13.7201C34.4037 13.7317 34.247 13.6115 34.2286 13.4419C33.9036 10.4737 35.8272 7.63053 38.5226 6.93086C38.8093 6.85677 39.0277 7.18274 38.8577 7.42474H38.856ZM48.2558 14.9005C46.5472 14.9005 45.2503 14.3556 45.5304 14.084C46.5455 13.4765 47.7474 13.7498 47.7474 13.7498C48.3625 13.8255 48.1608 14.1103 48.2574 14.3754C48.2574 14.4708 48.4208 14.8972 48.2541 14.9005H48.2558Z" fill="url(#paint0_linear_50_1728)"/>
</g>
<defs>
<linearGradient id="paint0_linear_50_1728" x1="70.9992" y1="0" x2="70.9992" y2="56" gradientUnits="userSpaceOnUse">
<stop stop-color="#F1EDB9"/>
<stop offset="0.07" stop-color="#93BCE4"/>
<stop offset="0.3" stop-color="#5A8DCA"/>
<stop offset="0.58" stop-color="#5D76B8"/>
<stop offset="0.72" stop-color="#6371B4"/>
<stop offset="0.92" stop-color="#7766AC"/>
<stop offset="0.94" stop-color="#7C66AB"/>
<stop offset="0.96" stop-color="#8D67AB"/>
<stop offset="0.99" stop-color="#A969AB"/>
<stop offset="1" stop-color="#B76BAB"/>
</linearGradient>
<clipPath id="clip0_50_1728">
<rect width="142" height="56" fill="white"/>
</clipPath>
</defs>
</svg>
