<svg width="27" height="27" viewBox="0 0 27 27" fill="none" xmlns="http://www.w3.org/2000/svg">
<path d="M19.6875 15.3125C20.3779 15.3125 20.9375 14.7529 20.9375 14.0625C20.9375 13.3721 20.3779 12.8125 19.6875 12.8125C18.9971 12.8125 18.4375 13.3721 18.4375 14.0625C18.4375 14.7529 18.9971 15.3125 19.6875 15.3125Z" fill="white"/>
<path d="M19.6875 20.3125C20.3779 20.3125 20.9375 19.7529 20.9375 19.0625C20.9375 18.3721 20.3779 17.8125 19.6875 17.8125C18.9971 17.8125 18.4375 18.3721 18.4375 19.0625C18.4375 19.7529 18.9971 20.3125 19.6875 20.3125Z" fill="white"/>
<path d="M14.6875 14.0625C14.6875 14.7529 14.1279 15.3125 13.4375 15.3125C12.7471 15.3125 12.1875 14.7529 12.1875 14.0625C12.1875 13.3721 12.7471 12.8125 13.4375 12.8125C14.1279 12.8125 14.6875 13.3721 14.6875 14.0625Z" fill="white"/>
<path d="M14.6875 19.0625C14.6875 19.7529 14.1279 20.3125 13.4375 20.3125C12.7471 20.3125 12.1875 19.7529 12.1875 19.0625C12.1875 18.3721 12.7471 17.8125 13.4375 17.8125C14.1279 17.8125 14.6875 18.3721 14.6875 19.0625Z" fill="white"/>
<path d="M7.1875 15.3125C7.87786 15.3125 8.4375 14.7529 8.4375 14.0625C8.4375 13.3721 7.87786 12.8125 7.1875 12.8125C6.49715 12.8125 5.9375 13.3721 5.9375 14.0625C5.9375 14.7529 6.49715 15.3125 7.1875 15.3125Z" fill="white"/>
<path d="M7.1875 20.3125C7.87786 20.3125 8.4375 19.7529 8.4375 19.0625C8.4375 18.3721 7.87786 17.8125 7.1875 17.8125C6.49715 17.8125 5.9375 18.3721 5.9375 19.0625C5.9375 19.7529 6.49715 20.3125 7.1875 20.3125Z" fill="white"/>
<path fill-rule="evenodd" clip-rule="evenodd" d="M7.1875 0C7.70526 0 8.125 0.419738 8.125 0.9375V1.8909C8.9525 1.87499 9.86416 1.87499 10.8668 1.875H16.008C17.0107 1.87499 17.9225 1.87499 18.75 1.8909V0.9375C18.75 0.419738 19.1697 0 19.6875 0C20.2052 0 20.625 0.419738 20.625 0.9375V1.97136C20.9499 1.99614 21.2576 2.02728 21.5487 2.06641C23.0142 2.26345 24.2005 2.6786 25.136 3.61405C26.0714 4.54951 26.4865 5.73569 26.6836 7.20123C26.875 8.62523 26.875 10.4447 26.875 12.7419V15.383C26.875 17.6801 26.875 19.4998 26.6836 20.9237C26.4865 22.3892 26.0714 23.5755 25.136 24.511C24.2005 25.4464 23.0142 25.8615 21.5487 26.0586C20.1247 26.25 18.3052 26.25 16.0081 26.25H10.867C8.56981 26.25 6.75023 26.25 5.32623 26.0586C3.8607 25.8615 2.67451 25.4464 1.73905 24.511C0.8036 23.5755 0.38845 22.3892 0.191425 20.9237C-3.70108e-05 19.4998 -2.44335e-05 17.6803 5.66503e-07 15.383V12.742C-2.44335e-05 10.4447 -3.70108e-05 8.62524 0.191425 7.20123C0.38845 5.73569 0.8036 4.54951 1.73905 3.61405C2.67451 2.6786 3.8607 2.26345 5.32623 2.06641C5.61738 2.02728 5.92508 1.99614 6.25 1.97136V0.9375C6.25 0.419738 6.66974 0 7.1875 0ZM5.57606 3.9247C4.31845 4.09377 3.59389 4.41086 3.06488 4.93988C2.53586 5.46889 2.21878 6.19345 2.0497 7.45106C2.02106 7.66404 1.99713 7.88826 1.9771 8.125H24.8979C24.8779 7.88826 24.8539 7.66405 24.8252 7.45106C24.6562 6.19345 24.3391 5.46889 23.8101 4.93988C23.2811 4.41086 22.5565 4.09377 21.299 3.9247C20.0144 3.75199 18.321 3.75 15.9375 3.75H10.9375C8.55397 3.75 6.86064 3.75199 5.57606 3.9247ZM1.875 12.8125C1.875 11.745 1.8754 10.8159 1.89136 10H24.9836C24.9996 10.8159 25 11.745 25 12.8125V15.3125C25 17.696 24.998 19.3894 24.8252 20.674C24.6562 21.9315 24.3391 22.6561 23.8101 23.1851C23.2811 23.7141 22.5565 24.0313 21.299 24.2003C20.0144 24.373 18.321 24.375 15.9375 24.375H10.9375C8.55397 24.375 6.86064 24.373 5.57606 24.2003C4.31845 24.0313 3.59389 23.7141 3.06488 23.1851C2.53586 22.6561 2.21878 21.9315 2.0497 20.674C1.87699 19.3894 1.875 17.696 1.875 15.3125V12.8125Z" fill="white"/>
</svg>
